<svg xmlns="http://www.w3.org/2000/svg"><g><g><path fill-rule="evenodd" d="M202.07 233.7h63.05c14.4 0 14.54-15.3 13.08-22.85-.8-5.08-9.43-5.03-10.38 0v5.9c0 2.7-2.2 4.9-4.9 4.9H142.03c-2.7 0-4.9-2.2-4.9-4.9v-5.9c-.95-5.03-9.57-5.08-10.38 0-1.46 7.56-1.32 22.86 13.08 22.86H202.07zM157.5 87.15H254.7c6.85 0 12.43 5.9 12.43 13.14v6.28c0 8.88-12.03 8.85-12.03.06v-3.43c0-2.2-1.78-3.98-3.97-3.98H153.7c-2.17 0-3.95 1.8-3.95 3.97v3.35c0 8.83-11.47 8.77-11.47.2v-6.47c0-7.23 5.6-13.14 12.42-13.14h6.8z"/><path fill-rule="evenodd" d="M264.68 159.34c6.73 3.17 11.38 9.7 11.38 17.2 0 10.6-9.24 19.26-20.54 19.26h-31.66c-2.96 0-5.38-2.27-5.38-5.05V130.5c0-2.9 2.38-5.27 5.3-5.27h26.36c11.1 0 20.18 9.07 20.18 20.16 0 5.4-2.15 10.3-5.64 13.94m-23.63-4.9h10.05v-.12c4.58-.7 8.1-4.68 8.1-9.45 0-5.26-4.3-9.56-9.55-9.56H229.4v50h25.68c5.43 0 9.87-4.44 9.87-9.87 0-5.43-4.44-9.88-9.87-9.88h-3.98v-.02h-10.05c-3.05 0-5.55-2.5-5.55-5.55s2.5-5.55 5.55-5.55"/><g><path d="M161.5 252.2c0-.94.77-1.7 1.7-1.7.94 0 1.7.76 1.7 1.7v9.18c0 2.1-.86 4-2.24 5.4-1.38 1.37-3.28 2.22-5.38 2.23-2.1 0-4-.85-5.4-2.23-1.37-1.38-2.22-3.28-2.22-5.38v-9.2c0-.94.75-1.7 1.7-1.7.92 0 1.68.76 1.68 1.7v9.18c0 1.17.48 2.23 1.25 3 .76.76 1.8 1.24 2.97 1.24 1.17 0 2.23-.48 3-1.25.77-.76 1.25-1.82 1.25-2.98v-9.2z"/></g><g><path d="M177.56 265.62c.93 0 1.7.76 1.7 1.7 0 .93-.77 1.7-1.7 1.7h-4.7c-1.75 0-3.35-.73-4.5-1.9-1.15-1.14-1.87-2.73-1.87-4.5h-.02V252.2c0-.93.76-1.7 1.7-1.7s1.7.77 1.7 1.7v10.43c0 .82.33 1.57.88 2.1.54.56 1.3.9 2.1.9h4.7z"/></g><path d="M213.45 189.78c.37 3.5-2.16 6.62-5.65 7-3.5.36-6.62-2.17-7-5.66l-5.2-47.9-18.43 46.84-.02.04-.06.13-.05.1v.02l-.05.1-.03.06-.04.1-.02.04-.04.1-.02.03c-.34.65-.78 1.2-1.3 1.68v.02l-.1.1c-.33.28-.7.54-1.1.76l-.03.02-.1.06v.02l-.12.05-.06.03-.07.03-.07.04-.07.03-.07.03-.07.03-.06.03h-.06l-.03.03-.05.02-.08.03h-.05c-.62.23-1.24.34-1.86.37H171c-.7-.03-1.4-.17-2.1-.44l-.07-.02h-.02l-.08-.05-.08-.03-.07-.03-.07-.03-.07-.04-.05-.02-.1-.06h-.02l-.1-.06-.06-.03c-.35-.2-.67-.43-.97-.68l-.03-.02c-.07-.06-.14-.12-.2-.18s-.12-.1-.17-.16c-.05-.06-.1-.12-.15-.17-.07-.07-.13-.14-.2-.2v-.04c-.26-.3-.5-.63-.7-.98l-.02-.05-.05-.1v-.02l-.06-.1-.02-.06-.03-.08-.05-.07-.03-.07-.03-.08-.05-.1-.04-.1-18.45-46.88-5.2 47.9c-.38 3.5-3.5 6.02-7 5.65-3.5-.37-6-3.5-5.64-7l6.14-56.47v-.04c.08-.66.22-1.3.42-1.95.2-.62.45-1.23.77-1.83 1.57-2.95 4.45-5 7.9-5.5.12 0 .24-.02.35-.03.54-.05 1.08-.07 1.6-.04h.03c.7.03 1.34.1 1.93.25 3.28.77 6.07 3.05 7.38 6.4l15.73 39.9 15.7-39.9c1.32-3.35 4.1-5.63 7.4-6.4.58-.14 1.23-.22 1.9-.25h.04c.53-.03 1.06 0 1.6.04.12 0 .23.03.35.04 3.45.48 6.34 2.54 7.9 5.5.32.6.58 1.2.77 1.83.2.65.33 1.3.4 1.96v.03l6.15 56.48z"/><g><path d="M149.02 267.12c.1.93-.56 1.77-1.5 1.88-.92.1-1.76-.55-1.87-1.5l-1.46-12.2-5.2 12.02c-.36.86-1.36 1.26-2.22.9-.42-.2-.72-.52-.9-.9l-5.18-12.03-1.45 12.2c-.1.95-.96 1.6-1.9 1.5-.92-.1-1.58-.95-1.47-1.88l1.7-14.2c.1-.93.66-1.7 1.47-2.1.1-.06.22-.1.33-.15.04-.02.1-.04.13-.05.16-.04.32-.08.5-.1h.03c.9-.12 1.77.16 2.38.74.13.12.25.25.36.4.07.1.14.2.2.32.03.06.06.12.1.2l4.4 10.18 4.4-10.2c.35-.84 1.1-1.4 1.97-1.6.17-.04.34-.06.5-.07.13-.02.25-.02.37 0 .05 0 .1 0 .14 0h.02c.9.13 1.68.64 2.1 1.37.1.15.17.3.23.48.03.1.06.22.1.33 0 .08.02.15.03.23v.02l1.7 14.2z"/></g><g><path d="M184.97 267.32c0 .93-.76 1.7-1.7 1.7-.93 0-1.7-.77-1.7-1.7V253.9h-4.82c-.94 0-1.7-.76-1.7-1.7s.76-1.7 1.7-1.7h13.05c.94 0 1.7.76 1.7 1.7s-.76 1.7-1.7 1.7h-4.83v13.42z"/></g><g><path d="M195.56 267.32c0 .93-.76 1.7-1.7 1.7-.93 0-1.7-.77-1.7-1.7V252.2c0-.94.77-1.7 1.7-1.7.94 0 1.7.76 1.7 1.7v15.12z"/></g><g><path d="M230.4 267.1c.1.94-.56 1.8-1.5 1.9-.92.1-1.76-.55-1.88-1.48l-.6-4.8h-5.88c-.93 0-1.7-.75-1.7-1.7 0-.93.77-1.7 1.7-1.7H226l-.15-1.24c0-.05 0-.1 0-.13-.06-.28-.12-.57-.2-.87-.1-.32-.23-.62-.36-.9-.68-1.34-1.9-2.28-3.44-2.28h-.02c-.3 0-.58.03-.85.1-.27.06-.52.15-.77.28-1.3.66-2.18 2.1-2.36 3.78l-1.07 9.44c-.1.93-.94 1.6-1.87 1.5-.93-.1-1.6-.94-1.5-1.87l1.07-9.44c.3-2.8 1.86-5.26 4.2-6.44.45-.24.95-.42 1.5-.55.5-.12 1.07-.2 1.64-.2h.02c2.94 0 5.23 1.72 6.46 4.18.23.47.43.95.57 1.44.12.43.22.9.3 1.38 0 .05 0 .1.02.16l1.17 9.45z"/></g><g><path d="M235.6 267.32c0 .93-.77 1.7-1.7 1.7-.94 0-1.7-.77-1.7-1.7v-14.04c0-.1 0-.2.02-.3.02-.2.07-.37.13-.55.04-.1.1-.2.14-.3.28-.53.74-.93 1.32-1.13.08-.02.15-.05.23-.06.06 0 .12-.03.18-.04h.02c.1-.02.25-.03.4-.02h.04c.7.02 1.34.35 1.8.92l9.03 11.52V252.2c0-.94.76-1.7 1.7-1.7.93 0 1.7.76 1.7 1.7v13.98c0 .74-.34 1.4-.9 1.86-.1.08-.2.16-.34.23-.08.04-.15.07-.22.1h-.02v.02c-.05 0-.1.03-.14.04h-.02c-.62.22-1.27.17-1.82-.1-.08-.03-.15-.07-.22-.1-.12-.08-.23-.17-.34-.26-.06-.06-.14-.14-.2-.23l-.07-.06v-.02l-.02-.02-9.04-11.53v11.2z"/></g><g><path d="M262.1 265.62c.95 0 1.7.76 1.7 1.7 0 .93-.75 1.7-1.7 1.7h-5c-1.84 0-3.5-.77-4.73-1.98-1.2-1.2-1.95-2.88-1.96-4.72V257.2c0-1.84.77-3.52 1.98-4.73 1.2-1.2 2.88-1.96 4.72-1.96h5c.95 0 1.7.77 1.7 1.7 0 .94-.75 1.7-1.7 1.7h-5c-.9 0-1.73.37-2.33.97-.6.6-.97 1.43-.97 2.33V262.33c0 .9.37 1.73.97 2.33.6.6 1.43.97 2.33.97h5z"/></g><g><path d="M271.93 253.9c-1.25 0-2.4.5-3.22 1.28-.8.77-1.3 1.84-1.3 3v3.16c0 1.16.5 2.22 1.3 3 .84.8 1.98 1.28 3.23 1.28 1.26 0 2.4-.5 3.22-1.28.8-.78 1.3-1.84 1.3-3v-3.16c0-1.17-.5-2.23-1.3-3-.82-.8-1.96-1.3-3.22-1.3m0-3.38c2.17 0 4.14.87 5.57 2.24 1.44 1.4 2.34 3.3 2.34 5.43v3.17c0 2.13-.9 4.05-2.34 5.44-1.43 1.37-3.4 2.23-5.56 2.23-2.18 0-4.15-.85-5.58-2.22-1.44-1.4-2.34-3.3-2.34-5.44v-3.16c0-2.13.9-4.05 2.35-5.44 1.42-1.37 3.4-2.23 5.56-2.23z"/></g><g><path d="M200.38 253.9V265.62h6.56c.6 0 1.12-.24 1.5-.63.4-.4.64-.93.64-1.5v-.02c0-.55-.2-1.06-.57-1.44l-.05-.06c-.4-.4-.93-.64-1.5-.64h-2.26c-.93 0-1.7-.75-1.7-1.7 0-.92.77-1.7 1.7-1.7h.78c.5-.02.94-.24 1.27-.58.38-.37.6-.88.6-1.43 0-.56-.22-1.07-.6-1.44-.36-.38-.87-.6-1.42-.6h-4.92zm-3.4 5.75v-7.37c0-.24.06-.47.15-.68.1-.22.22-.42.4-.58V251c.3-.28.68-.46 1.13-.5.03 0 .06 0 .1 0h6.54c1.5 0 2.85.62 3.83 1.6.98.98 1.6 2.33 1.6 3.82 0 1.07-.32 2.05-.84 2.9.33.2.66.47.95.76.04.03.07.07.1.1.94 1 1.5 2.33 1.5 3.8h.02c0 1.53-.63 2.9-1.63 3.9-1 1-2.37 1.63-3.9 1.63h-8.25c-.95 0-1.7-.75-1.7-1.68v-7.67z"/></g></g></g></svg>